<svg width="58" height="60" viewBox="0 0 58 60" fill="none" xmlns="http://www.w3.org/2000/svg">
<g opacity="0.5">
<path d="M33.8635 29.1464C34.0587 29.3417 34.0587 29.6583 33.8635 29.8536L30.6815 33.0355C30.4862 33.2308 30.1696 33.2308 29.9744 33.0355C29.7791 32.8403 29.7791 32.5237 29.9744 32.3284L32.8028 29.5L29.9744 26.6716C29.7791 26.4763 29.7791 26.1597 29.9744 25.9645C30.1696 25.7692 30.4862 25.7692 30.6815 25.9645L33.8635 29.1464ZM18.4707 29L33.5099 29L33.5099 30L18.4707 30L18.4707 29Z" fill="#333333"/>
<path fill-rule="evenodd" clip-rule="evenodd" d="M56.9192 30C56.9192 13.9837 43.9355 1 27.9192 1C16.1828 1 6.07471 7.97187 1.51065 18H0.415459C5.0448 7.40457 15.6173 0 27.9192 0C44.4877 0 57.9192 13.4315 57.9192 30C57.9192 46.5685 44.4877 60 27.9192 60C15.2338 60 4.38736 52.1266 0 41H1.07814C5.41107 51.5616 15.7965 59 27.9192 59C43.9355 59 56.9192 46.0163 56.9192 30Z" fill="#333333"/>
</g>
</svg>
