<svg width="58" height="60" viewBox="0 0 58 60" fill="none" xmlns="http://www.w3.org/2000/svg">
<g opacity="0.5">
<path d="M24.0555 30.8536C23.8602 30.6583 23.8602 30.3417 24.0555 30.1464L27.2375 26.9645C27.4327 26.7692 27.7493 26.7692 27.9446 26.9645C28.1398 27.1597 28.1398 27.4763 27.9446 27.6716L25.1161 30.5L27.9446 33.3284C28.1398 33.5237 28.1398 33.8403 27.9446 34.0355C27.7493 34.2308 27.4327 34.2308 27.2375 34.0355L24.0555 30.8536ZM39.4482 31L24.409 31L24.409 30L39.4482 30L39.4482 31Z" fill="#333333"/>
<path fill-rule="evenodd" clip-rule="evenodd" d="M0.999748 30C0.999748 46.0163 13.9835 59 29.9997 59C41.7362 59 51.8442 52.0281 56.4083 42H57.5035C52.8741 52.5954 42.3017 60 29.9997 60C13.4312 60 -0.00025177 46.5685 -0.00025177 30C-0.00025177 13.4315 13.4312 0 29.9997 0C42.6851 0 53.5316 7.87339 57.9189 19H56.8408C52.5079 8.43838 42.1225 1 29.9997 1C13.9835 1 0.999748 13.9837 0.999748 30Z" fill="#333333"/>
</g>
</svg>
