<svg width="58" height="60" viewBox="0 0 58 60" fill="none" xmlns="http://www.w3.org/2000/svg">
<path d="M33.8635 30.8536C34.0587 30.6583 34.0587 30.3417 33.8635 30.1464L30.6815 26.9645C30.4862 26.7692 30.1696 26.7692 29.9744 26.9645C29.7791 27.1597 29.7791 27.4763 29.9744 27.6716L32.8028 30.5L29.9744 33.3284C29.7791 33.5237 29.7791 33.8403 29.9744 34.0355C30.1696 34.2308 30.4862 34.2308 30.6815 34.0355L33.8635 30.8536ZM18.4707 31L33.5099 31L33.5099 30L18.4707 30L18.4707 31Z" fill="#77B82A"/>
<path fill-rule="evenodd" clip-rule="evenodd" d="M56.9192 30C56.9192 46.0163 43.9355 59 27.9192 59C16.1828 59 6.07471 52.0281 1.51065 42H0.415459C5.0448 52.5954 15.6173 60 27.9192 60C44.4877 60 57.9192 46.5685 57.9192 30C57.9192 13.4315 44.4877 0 27.9192 0C15.2338 0 4.38736 7.87339 0 19H1.07814C5.41107 8.43838 15.7965 1 27.9192 1C43.9355 1 56.9192 13.9837 56.9192 30Z" fill="#77B82A"/>
</svg>
