<svg width="60" height="62" viewBox="0 0 60 62" fill="none" xmlns="http://www.w3.org/2000/svg">
<path d="M25.0626 30.1087C24.8658 30.3025 24.8634 30.6191 25.0571 30.8158L28.2144 34.0223C28.4082 34.219 28.7248 34.2215 28.9215 34.0277C29.1183 33.834 29.1207 33.5174 28.927 33.3206L26.1205 30.4705L28.9706 27.664C29.1674 27.4702 29.1698 27.1536 28.9761 26.9569C28.7823 26.7601 28.4658 26.7577 28.269 26.9514L25.0626 30.1087ZM40.456 30.0811L25.4172 29.965L25.4095 30.965L40.4483 31.081L40.456 30.0811Z" fill="#77B82A"/>
<path fill-rule="evenodd" clip-rule="evenodd" d="M2.00098 30.7844C2.12456 14.7686 15.2081 1.88542 31.2239 2.00899C42.96 2.09955 53.0139 9.14921 57.5005 19.2122L58.5956 19.2207C54.0482 8.58987 43.5331 1.10394 31.2316 1.00902C14.6635 0.881186 1.12885 14.2086 1.00101 30.7767C0.873171 47.3447 14.2006 60.8794 30.7686 61.0072C43.4537 61.1051 54.3605 53.3156 58.8336 42.2232L57.7555 42.2149C53.3412 52.7428 42.8987 60.1008 30.7764 60.0073C14.7606 59.8837 1.8774 46.8002 2.00098 30.7844Z" fill="#77B82A"/>
</svg>
