<svg width="60" height="62" viewBox="0 0 60 62" fill="none" xmlns="http://www.w3.org/2000/svg">
<g opacity="0.5">
<path d="M34.8606 30.1317C35.0565 30.3264 35.0574 30.6429 34.8628 30.8388L31.6904 34.0303C31.4957 34.2262 31.1791 34.2271 30.9833 34.0325C30.7874 33.8378 30.7865 33.5212 30.9811 33.3254L33.801 30.4884L30.9641 27.6685C30.7683 27.4739 30.7673 27.1573 30.962 26.9614C31.1566 26.7656 31.4732 26.7646 31.6691 26.9593L34.8606 30.1317ZM19.4675 30.0316L34.5066 29.9863L34.5096 30.9863L19.4705 31.0316L19.4675 30.0316Z" fill="white"/>
<path fill-rule="evenodd" clip-rule="evenodd" d="M57.9189 30.9158C57.8706 14.8996 44.8478 1.95505 28.8316 2.0033C17.0953 2.03867 7.00825 9.04096 2.47442 19.0828L1.37924 19.0861C5.97664 8.47677 16.5268 1.04037 28.8286 1.00331C45.3971 0.953386 58.869 14.3443 58.9189 30.9128C58.9688 47.4812 45.5779 60.9531 29.0094 61.003C16.3241 61.0413 5.45395 53.2006 1.03308 42.0872L2.11121 42.084C6.47596 52.6325 16.8837 60.0396 29.0064 60.003C45.0226 59.9548 57.9671 46.932 57.9189 30.9158Z" fill="white"/>
</g>
</svg>
