<svg width="16" height="16" viewBox="0 0 16 16" fill="none" xmlns="http://www.w3.org/2000/svg">
<path d="M8.4875 14.4001H6.4377C6.09531 14.4001 5.8168 14.1216 5.8168 13.7792V9.15576H4.6209C4.27852 9.15576 4 8.87715 4 8.53486V6.55371C4 6.21133 4.27852 5.93281 4.6209 5.93281H5.8168V4.94072C5.8168 3.95703 6.12568 3.12012 6.70996 2.52061C7.29688 1.91836 8.11709 1.6001 9.08193 1.6001L10.6452 1.60264C10.987 1.60322 11.265 1.88174 11.265 2.22354V4.06299C11.265 4.40537 10.9866 4.68389 10.6443 4.68389L9.5918 4.68428C9.2708 4.68428 9.18906 4.74863 9.17158 4.76836C9.14277 4.80107 9.1085 4.89355 9.1085 5.14893V5.93271H10.5652C10.6749 5.93271 10.7812 5.95977 10.8725 6.01074C11.0694 6.1208 11.1919 6.32891 11.1919 6.55381L11.1911 8.53496C11.1911 8.87715 10.9126 9.15566 10.5702 9.15566H9.1085V13.7792C9.1085 14.1216 8.82988 14.4001 8.4875 14.4001ZM6.56719 13.6497H8.35801V8.81982C8.35801 8.59121 8.54404 8.40527 8.77256 8.40527H10.4407L10.4414 6.6832H8.77246C8.54395 6.6832 8.35801 6.49727 8.35801 6.26865V5.14893C8.35801 4.85576 8.38779 4.52236 8.60908 4.27178C8.87647 3.96885 9.29785 3.93389 9.5916 3.93389L10.5146 3.9335V2.35283L9.08135 2.35049C7.53076 2.35049 6.56719 3.34307 6.56719 4.94072V6.26865C6.56719 6.49717 6.38125 6.6832 6.15273 6.6832H4.75039V8.40527H6.15273C6.38125 8.40527 6.56719 8.59121 6.56719 8.81982V13.6497ZM10.6438 2.35303H10.6438H10.6438Z" fill="white"/>
</svg>
