<svg width="16" height="16" viewBox="0 0 16 16" fill="none" xmlns="http://www.w3.org/2000/svg">
<path d="M10.6819 1.6001H5.3183C3.26807 1.6001 1.6001 3.26807 1.6001 5.3183V10.6819C1.6001 12.7321 3.26807 14.4001 5.3183 14.4001H10.6819C12.7321 14.4001 14.4001 12.7321 14.4001 10.6819V5.3183C14.4001 3.26807 12.7321 1.6001 10.6819 1.6001ZM13.4001 10.6819C13.4001 12.1807 12.1807 13.4001 10.6819 13.4001H5.3183C3.81947 13.4001 2.6001 12.1807 2.6001 10.6819V5.3183C2.6001 3.81947 3.81947 2.6001 5.3183 2.6001H10.6819C12.1807 2.6001 13.4001 3.81947 13.4001 5.3183V10.6819Z" fill="white"/>
<path d="M8.00029 4.55005C6.09794 4.55005 4.55029 6.0977 4.55029 8.00005C4.55029 9.9024 6.09794 11.45 8.00029 11.45C9.90264 11.45 11.4503 9.9024 11.4503 8.00005C11.4503 6.0977 9.90264 4.55005 8.00029 4.55005ZM8.00029 10.45C6.64937 10.45 5.55029 9.35097 5.55029 8.00005C5.55029 6.64912 6.64937 5.55005 8.00029 5.55005C9.35122 5.55005 10.4503 6.64912 10.4503 8.00005C10.4503 9.35097 9.35122 10.45 8.00029 10.45Z" fill="white"/>
<path d="M11.5 5C11.7761 5 12 4.77614 12 4.5C12 4.22386 11.7761 4 11.5 4C11.2239 4 11 4.22386 11 4.5C11 4.77614 11.2239 5 11.5 5Z" fill="white"/>
</svg>
