<svg width="16" height="16" viewBox="0 0 16 16" fill="none" xmlns="http://www.w3.org/2000/svg">
<path d="M14.4001 4.59906C13.5949 4.63617 13.6125 4.63315 13.5215 4.64076L13.9983 3.27895C13.9983 3.27895 12.5099 3.8265 12.1325 3.92445C11.1415 3.03373 9.66846 2.99438 8.61533 3.64164C7.75293 4.17182 7.29004 5.08227 7.44443 6.14643C5.76602 5.91352 4.35186 5.11791 3.23535 3.7767L2.88223 3.35258L2.61836 3.83715C2.28486 4.44945 2.17412 5.14955 2.30645 5.80844C2.36074 6.07875 2.45303 6.33656 2.58086 6.57797L2.27793 6.46059L2.24199 6.96674C2.20557 7.4809 2.37676 8.08109 2.7 8.57211C2.79102 8.71039 2.9082 8.86225 3.05674 9.01205L2.9002 8.98803L3.09121 9.56801C3.34229 10.33 3.86377 10.9196 4.54053 11.2473C3.86465 11.5341 3.31865 11.7171 2.42119 12.0123L1.6001 12.2823L2.3585 12.6969C2.64766 12.855 3.66943 13.383 4.679 13.5414C6.92314 13.8934 9.4498 13.6068 11.1508 12.0748C12.5835 10.7845 13.0536 8.94906 12.956 7.039C12.9412 6.74984 13.0204 6.47387 13.179 6.26205C13.4967 5.83793 14.3981 4.6019 14.4001 4.59906ZM12.5793 5.81283C12.3159 6.16449 12.184 6.61361 12.2076 7.07729C12.3062 9.00395 11.7819 10.4981 10.6494 11.518C9.32646 12.7095 7.19258 13.1772 4.79512 12.8011C4.36094 12.733 3.91221 12.5806 3.54082 12.4284C4.29326 12.1695 4.87432 11.9387 5.8127 11.4946L7.12266 10.8746L5.67637 10.782C4.98359 10.7376 4.40674 10.4019 4.05215 9.85678C4.24043 9.84584 4.42197 9.81537 4.60273 9.76498L5.98213 9.3808L4.59121 9.04018C3.91533 8.87465 3.53008 8.47025 3.32588 8.1601C3.1918 7.95629 3.1042 7.7475 3.05166 7.55502C3.19111 7.59242 3.35371 7.61908 3.61592 7.64506L4.90332 7.7724L3.8833 6.9767C3.14834 6.40346 2.85381 5.54223 3.06973 4.7143C5.36348 7.0934 8.05664 6.91459 8.32773 6.97748C8.26807 6.39789 8.2665 6.39652 8.25088 6.34135C7.90371 5.1141 8.66455 4.49096 9.00771 4.28002C9.72451 3.83949 10.8623 3.77309 11.6504 4.49887C11.8206 4.65551 12.0508 4.71713 12.2662 4.66361C12.4596 4.61557 12.6183 4.56469 12.7736 4.50932L12.4502 5.43295L12.8631 5.43324C12.7852 5.53773 12.6917 5.66283 12.5793 5.81283Z" fill="white"/>
</svg>
