<svg width="14" height="14" viewBox="0 0 14 14" fill="none" xmlns="http://www.w3.org/2000/svg">
<path d="M10.4981 13.4C10.553 13.4 13.0378 13.3995 12.9834 13.3995C13.2042 13.3995 13.3834 13.2203 13.3834 12.9995C13.1968 8.80907 14.3658 4.38721 10.0032 4.38721C9.16423 4.38721 8.49596 4.67361 8.01436 5.05227C8.01436 4.27307 7.17223 4.70401 5.22823 4.58827C5.00743 4.58827 4.82823 4.76747 4.82823 4.98827C4.9893 12.5435 4.46876 13.3995 5.22823 13.3995H7.71356C8.43516 13.3995 7.97596 12.3819 8.11356 9.03254C8.11356 7.64907 8.51356 7.37814 9.20476 7.37814C9.96956 7.37814 10.0981 7.90934 10.0981 9.09974C10.2352 12.3888 9.77916 13.4 10.4981 13.4ZM9.20476 6.57814C6.80956 6.57814 7.31356 9.21174 7.31356 12.5995H5.62823V5.38827H7.21436V6.08054C7.21436 6.46454 7.79943 6.65334 8.00316 6.26721C8.26556 5.76907 8.94716 5.18721 10.0032 5.18721C11.8842 5.18721 12.5834 6.11147 12.5834 8.5984V12.6H10.8981C10.8981 8.78987 11.3013 6.57814 9.20476 6.57814Z" fill="white"/>
<path d="M1.18196 4.58894C0.424624 4.58894 0.943024 5.43427 0.781957 13.0001C0.781957 13.2209 0.961157 13.4001 1.18196 13.4001H3.66996C4.42729 13.4001 3.90889 12.5548 4.06996 4.98894C4.06996 4.29827 3.06676 4.70574 1.18196 4.58894ZM3.26996 12.6001H1.58196V5.38894H3.26996V12.6001Z" fill="white"/>
<path d="M2.4249 0.600098C-0.0156312 0.600098 -0.000697672 4.29556 2.4249 4.29556C4.8489 4.29556 4.8681 0.600098 2.4249 0.600098ZM2.4249 3.49556C1.0553 3.49556 1.0425 1.4001 2.4249 1.4001C3.80997 1.4001 3.79237 3.49556 2.4249 3.49556Z" fill="white"/>
</svg>
