<svg width="24" height="24" viewBox="0 0 24 24" fill="none" xmlns="http://www.w3.org/2000/svg">
<path d="M11.9998 2.3999C8.02973 2.3999 4.7998 5.42795 4.7998 9.1499C4.7998 10.4074 5.17136 11.6347 5.87456 12.6994L11.59 21.334C11.6994 21.4994 11.8923 21.5999 12.0998 21.5999C12.1014 21.5999 12.1029 21.5999 12.1045 21.5999C12.3138 21.5984 12.507 21.4948 12.6145 21.3265L18.1842 12.6082C18.8486 11.566 19.1998 10.3701 19.1998 9.1499C19.1998 5.42795 15.9699 2.3999 11.9998 2.3999ZM17.1544 12.0306L12.0907 19.9569L6.89448 12.1066C6.30917 11.2204 5.9918 10.198 5.9918 9.1499C5.9918 6.04828 8.69141 3.5174 11.9998 3.5174C15.3082 3.5174 18.0038 6.04828 18.0038 9.1499C18.0038 10.1669 17.7074 11.1632 17.1544 12.0306Z" fill="#77B82A"/>
<path d="M11.9999 5.7749C10.0149 5.7749 8.3999 7.44033 8.3999 9.4874C8.3999 11.5214 9.98858 13.1999 11.9999 13.1999C14.036 13.1999 15.5999 11.499 15.5999 9.4874C15.5999 7.44033 13.9849 5.7749 11.9999 5.7749ZM11.9999 11.9707C10.6696 11.9707 9.5919 10.8555 9.5919 9.4874C9.5919 8.12269 10.6765 7.00415 11.9999 7.00415C13.3233 7.00415 14.4039 8.12269 14.4039 9.4874C14.4039 10.8356 13.3513 11.9707 11.9999 11.9707Z" fill="#77B82A"/>
</svg>
