<svg width="30" height="30" viewBox="0 0 30 30" fill="none" xmlns="http://www.w3.org/2000/svg">
<g opacity="0.6">
<path d="M17.8125 15.1875C17.5538 15.1875 17.3438 15.3975 17.3438 15.6562C17.3438 15.915 17.5538 16.125 17.8125 16.125C18.0712 16.125 18.2812 15.915 18.2812 15.6562C18.2812 15.3975 18.0712 15.1875 17.8125 15.1875Z" fill="white"/>
<path d="M7.78909 20.3337L3.10159 26.2399C2.98972 26.3807 2.96848 26.5732 3.04666 26.735C3.12485 26.8971 3.28891 27 3.46872 27H26.5312C26.711 27 26.8751 26.8971 26.9533 26.735C27.0316 26.5732 27.0102 26.3807 26.8983 26.2399L22.2108 20.3337C22.122 20.2216 21.9867 20.1562 21.8437 20.1562H17.7376L21.2431 14.658C22.0655 13.4251 22.5 11.9874 22.5 10.5C22.5 6.36456 19.1356 3 15 3C10.8643 3 7.49997 6.36456 7.49997 10.5C7.49997 11.9874 7.93448 13.4249 8.75681 14.658L12.2624 20.1562H8.15622C8.01321 20.1562 7.87808 20.2216 7.78909 20.3337ZM6.03897 24.0469H8.87326L7.27365 26.0625H4.43918L6.03897 24.0469ZM12.8602 21.0938L14.1452 23.1094H10.8142L12.414 21.0938H12.8602ZM17.1399 21.0938H17.5862L19.1858 23.1094H15.8549L17.1399 21.0938ZM19.9299 24.0469L21.5295 26.0625H8.47043L10.0702 24.0469H19.9299ZM22.7265 26.0625L21.1267 24.0469H23.9612L25.5608 26.0625H22.7265ZM23.217 23.1094H20.3827L18.7829 21.0938H21.6174L23.217 23.1094ZM9.5394 14.1416C8.81851 13.0624 8.43747 11.8032 8.43747 10.5C8.43747 6.88147 11.3814 3.9375 15 3.9375C18.6185 3.9375 21.5625 6.88147 21.5625 10.5C21.5625 11.8032 21.1814 13.0624 20.4607 14.1416C20.4587 14.1443 20.4571 14.1471 20.4552 14.1498C20.1474 14.6327 15.2371 22.3345 15 22.7062C14.4036 21.7707 10.1521 15.1024 9.54471 14.1498C9.54306 14.1471 9.54123 14.1443 9.5394 14.1416ZM11.217 21.0938L9.6174 23.1094H6.78293L8.38272 21.0938H11.217Z" fill="white"/>
<path d="M15 15.1875C17.5734 15.1875 19.6875 13.1036 19.6875 10.5C19.6875 7.91528 17.5847 5.8125 15 5.8125C12.4153 5.8125 10.3125 7.91528 10.3125 10.5C10.3125 13.1043 12.4274 15.1875 15 15.1875ZM15 6.75C17.0678 6.75 18.75 8.43219 18.75 10.5C18.75 12.587 17.0543 14.25 15 14.25C12.9452 14.25 11.25 12.587 11.25 10.5C11.25 8.43219 12.9322 6.75 15 6.75Z" fill="white"/>
<path d="M16.9746 16.7871C16.753 16.6534 16.4648 16.7248 16.3312 16.9466L14.5986 19.821C14.465 20.0427 14.5364 20.3307 14.7581 20.4644C14.9808 20.5986 15.2684 20.5257 15.4015 20.3049L17.1341 17.4305C17.2678 17.2088 17.1963 16.9208 16.9746 16.7871Z" fill="white"/>
</g>
</svg>
