<svg width="30" height="30" viewBox="0 0 30 30" fill="none" xmlns="http://www.w3.org/2000/svg">
<g opacity="0.6">
<path d="M7.125 22.5C7.69542 22.5 8.25089 22.3761 8.76562 22.1378V26.0625H5.01562C4.75678 26.0625 4.54688 26.2724 4.54688 26.5312C4.54688 26.7901 4.75678 27 5.01562 27H24.9844C25.2432 27 25.4531 26.7901 25.4531 26.5312C25.4531 26.2724 25.2432 26.0625 24.9844 26.0625H21.2344V22.1378C21.7491 22.3761 22.3046 22.5 22.875 22.5C25.111 22.5 27 20.6754 27 18.5156C27 16.7931 25.7486 15.2149 24.0333 14.7029C23.9339 13.619 23.2961 12.6502 22.3504 12.1268C22.5429 11.6088 22.6406 11.0636 22.6406 10.5C22.6406 10.1134 22.5932 9.72919 22.4998 9.35798C22.4365 9.10692 22.1816 8.95462 21.9307 9.01786C21.6797 9.08105 21.5274 9.33581 21.5906 9.58688C21.6653 9.88331 21.7031 10.1905 21.7031 10.5C21.7031 10.9491 21.6257 11.3833 21.4733 11.7956C21.242 11.7447 21.0053 11.7188 20.7656 11.7188C19.0564 11.7188 17.6482 13.0323 17.4977 14.703C16.6917 14.9437 15.9882 15.4198 15.4688 16.0357V12.2022L18.1547 10.9232C18.3884 10.8119 18.4877 10.5322 18.3764 10.2984C18.265 10.0647 17.9852 9.96544 17.7516 10.0768L15.4688 11.1638V7.6875C15.4688 7.42861 15.2588 7.21875 15 7.21875C14.7412 7.21875 14.5312 7.42861 14.5312 7.6875V9.75759L12.2484 8.67052C12.0146 8.55928 11.735 8.65842 11.6237 8.89219C11.5124 9.12591 11.6116 9.40566 11.8454 9.51694L14.5313 10.796V16.0357C14.0119 15.4198 13.3084 14.9437 12.5024 14.703C12.3518 13.0323 10.9436 11.7188 9.23438 11.7188C8.99475 11.7188 8.75803 11.7447 8.52666 11.7956C8.37427 11.3833 8.29688 10.9491 8.29688 10.5C8.29688 8.64366 9.63511 7.09148 11.4789 6.8093C11.6762 6.77911 11.8328 6.62723 11.869 6.43088C12.1266 5.03273 13.5019 3.9375 15 3.9375C16.4981 3.9375 17.8734 5.03273 18.131 6.43088C18.1672 6.62719 18.3238 6.77911 18.5211 6.8093C18.7129 6.83864 18.9037 6.88317 19.0883 6.94158C19.3352 7.01977 19.5986 6.88298 19.6767 6.63614C19.7548 6.38934 19.6181 6.12591 19.3712 6.04781C19.2427 6.00712 19.1117 5.97183 18.9795 5.94225C18.5075 4.24402 16.8539 3 15 3C13.1461 3 11.4925 4.24406 11.0205 5.94225C8.90063 6.4177 7.35938 8.29228 7.35938 10.5C7.35938 11.0636 7.45711 11.6088 7.64953 12.1267C6.70397 12.6502 6.06605 13.619 5.96672 14.7029C4.25142 15.2149 3 16.7931 3 18.5156C3 20.6754 4.88902 22.5 7.125 22.5V22.5ZM9.70312 22.1378C10.2179 22.3761 10.7733 22.5 11.3438 22.5C12.6116 22.5 13.7676 21.9133 14.5312 21.0116V26.0625H9.70312V22.1378ZM15.4688 26.0625V21.0116C16.2324 21.9133 17.3884 22.5 18.6562 22.5C19.2267 22.5 19.7821 22.3761 20.2969 22.1378V26.0625H15.4688ZM18.0525 15.5299C18.2793 15.4843 18.4632 15.2744 18.422 14.979C18.4333 13.6963 19.4803 12.6562 20.7656 12.6562C22.0603 12.6562 23.0978 13.7049 23.1093 14.979C23.0684 15.2722 23.2497 15.4839 23.4788 15.5299C24.9518 15.8257 26.0625 17.1094 26.0625 18.5156C26.0625 20.1672 24.6028 21.5625 22.875 21.5625C22.2937 21.5625 21.731 21.3922 21.2344 21.0686V19.5084L23.7877 18.2318C24.0193 18.116 24.1132 17.8344 23.9974 17.6028C23.8816 17.3713 23.5999 17.2774 23.3685 17.3932L21.2344 18.4603C21.2344 18.0656 21.2344 15.6013 21.2344 15C21.2344 14.7411 21.0245 14.5312 20.7656 14.5312C20.5068 14.5312 20.2969 14.7411 20.2969 15V16.6808L19.6908 16.0748C19.5077 15.8918 19.211 15.8918 19.0279 16.0748C18.8448 16.2578 18.8448 16.5546 19.0279 16.7377L20.2969 18.0067V21.0686C19.8003 21.3922 19.2376 21.5625 18.6562 21.5625C16.9285 21.5625 15.4688 20.1672 15.4688 18.5156C15.4688 17.1094 16.5795 15.8257 18.0525 15.5299V15.5299ZM6.52125 15.5299C6.7478 15.4844 6.93197 15.2749 6.89072 14.979C6.90216 13.7048 7.93866 12.6562 9.23438 12.6562C10.5197 12.6562 11.5667 13.6963 11.578 14.979C11.5371 15.2726 11.719 15.484 11.9475 15.5299C13.4205 15.8257 14.5312 17.1094 14.5312 18.5156C14.5312 20.1672 13.0715 21.5625 11.3438 21.5625C10.7624 21.5625 10.1997 21.3922 9.70312 21.0686V20.8192L10.9721 19.5502C11.1551 19.3672 11.1551 19.0704 10.9721 18.8873C10.789 18.7043 10.4923 18.7043 10.3091 18.8873L9.70312 19.4933V16.4062C9.70312 16.1474 9.49322 15.9375 9.23438 15.9375C8.97553 15.9375 8.76562 16.1474 8.76562 16.4062V18.4603L6.6315 17.3932C6.39994 17.2775 6.11841 17.3713 6.00262 17.6029C5.88684 17.8344 5.98069 18.116 6.2123 18.2318L8.76562 19.5084V21.0686C8.26903 21.3922 7.70634 21.5625 7.125 21.5625C5.39723 21.5625 3.9375 20.1672 3.9375 18.5156C3.9375 17.1094 5.04825 15.8257 6.52125 15.5299Z" fill="white"/>
<path d="M21 8.10938C21.2589 8.10938 21.4688 7.89951 21.4688 7.64062C21.4688 7.38174 21.2589 7.17188 21 7.17188C20.7411 7.17188 20.5312 7.38174 20.5312 7.64062C20.5312 7.89951 20.7411 8.10938 21 8.10938Z" fill="white"/>
</g>
</svg>
