<svg width="30" height="30" viewBox="0 0 30 30" fill="none" xmlns="http://www.w3.org/2000/svg">
<g opacity="0.6">
<path d="M26.9492 11.1764L24.6937 6.73154V4.96875C24.6937 4.70991 24.4839 4.5 24.2249 4.5H5.77492C5.51607 4.5 5.30617 4.70991 5.30617 4.96875V6.73177L3.05072 11.1764C3.01739 11.2422 3 11.3149 3 11.3885V12.5417C3 13.912 3.99863 15.0527 5.30617 15.2763V25.125H4.82649C4.5676 25.125 4.35774 25.3349 4.35774 25.5937C4.35774 25.8526 4.5676 26.0625 4.82649 26.0625H5.77131C5.77248 26.0625 5.7737 26.0627 5.77492 26.0627H18.6H22.35H24.225H25.1735C25.4323 26.0627 25.6422 25.8528 25.6422 25.5939C25.6422 25.3351 25.4323 25.1252 25.1735 25.1252H24.6938V15.2763C26.0014 15.0527 27 13.912 27 12.5417V11.3885C27 11.3149 26.9826 11.2422 26.9492 11.1764ZM6.24367 5.4375H23.7562V6.37515H20.5351H16.845H13.155H9.46493H6.24367V5.4375V5.4375ZM17.7726 11.3412L17.3638 7.31265H20.1878L21.45 11.4583V12.5417C21.45 13.5549 20.6257 14.3791 19.6125 14.3791C18.5993 14.3791 17.775 13.5549 17.775 12.5417V11.3885C17.775 11.3727 17.7742 11.3569 17.7726 11.3412ZM16.8375 11.4123V12.5417H16.8374C16.8374 13.5549 16.0132 14.3791 15 14.3791C13.9868 14.3791 13.1625 13.5549 13.1625 12.5417V11.4123L13.5787 7.31265H16.4214L16.8375 11.4123ZM12.6364 7.3127L12.2274 11.3412C12.2258 11.3569 12.225 11.3727 12.225 11.3885V12.5417C12.225 13.5549 11.4007 14.3791 10.3875 14.3791C9.37432 14.3791 8.55007 13.5549 8.55007 12.5417V11.4583L9.81232 7.3127H12.6364V7.3127ZM3.9375 12.5417V11.5007L6.06273 7.31265H8.83226L7.63286 11.252C7.61941 11.2962 7.61252 11.3423 7.61252 11.3885V12.5417C7.61252 13.5549 6.78817 14.3791 5.77492 14.3791C4.76176 14.3791 3.9375 13.5549 3.9375 12.5417ZM21.8813 25.1252H19.0687V23.7188V21.8438H19.5375C19.7964 21.8438 20.0063 21.634 20.0063 21.3751C20.0063 21.1162 19.7964 20.9063 19.5375 20.9063H19.0687V17.6251H21.8813V25.1252ZM23.7562 25.1252H22.8187V17.1564C22.8187 16.8975 22.6088 16.6876 22.3499 16.6876H18.5999H7.64997C7.39103 16.6876 7.18122 16.8975 7.18122 17.1564V23.7188C7.18122 23.9777 7.39103 24.1876 7.64997 24.1876H18.1312V25.1252H6.24367V15.2763C7.00745 15.1457 7.66582 14.7026 8.08127 14.0831C8.57965 14.8263 9.42729 15.3166 10.3875 15.3166C11.3477 15.3166 12.1953 14.8263 12.6937 14.0831C13.1921 14.8263 14.0398 15.3166 15 15.3166C15.9601 15.3166 16.8078 14.8263 17.3061 14.0831C17.8045 14.8263 18.6522 15.3166 19.6124 15.3166C20.5726 15.3166 21.4203 14.8263 21.9187 14.0831C22.3341 14.7026 22.9925 15.1457 23.7562 15.2763V25.1252ZM12.6905 17.6251H14.3236L13.4323 18.5163C13.2493 18.6993 13.2493 18.9961 13.4323 19.1792C13.5238 19.2708 13.6438 19.3166 13.7638 19.3166C13.8837 19.3166 14.0036 19.2708 14.0952 19.1793L15.6495 17.6251H18.1312V23.2501H8.11872V22.1969L12.6905 17.6251ZM8.11872 20.8711V17.6251H11.3646L8.11872 20.8711ZM26.0625 12.5417C26.0625 13.5549 25.2382 14.3791 24.225 14.3791C23.2118 14.3791 22.3875 13.5549 22.3875 12.5417V11.3885C22.3875 11.3423 22.3807 11.2962 22.3672 11.252L21.1678 7.31265H23.9373L26.0625 11.5007V12.5417Z" fill="white"/>
<path d="M12.8037 20.2768C12.9232 20.2768 13.0427 20.2314 13.1342 20.1405L13.142 20.1327C13.3256 19.9503 13.3265 19.6534 13.144 19.4698C12.9614 19.2862 12.6646 19.2853 12.481 19.4679L12.4732 19.4757C12.2896 19.6582 12.2888 19.955 12.4712 20.1386C12.5629 20.2308 12.6833 20.2768 12.8037 20.2768Z" fill="white"/>
<path d="M3.47981 25.125H3.46875C3.20986 25.125 3 25.3349 3 25.5938C3 25.8526 3.20986 26.0625 3.46875 26.0625H3.47981C3.73866 26.0625 3.94857 25.8526 3.94857 25.5938C3.94857 25.3349 3.73871 25.125 3.47981 25.125Z" fill="white"/>
<path d="M26.5316 25.125H26.5205C26.2616 25.125 26.0518 25.3349 26.0518 25.5938C26.0518 25.8526 26.2616 26.0625 26.5205 26.0625H26.5316C26.7905 26.0625 27.0003 25.8526 27.0003 25.5938C27.0003 25.3349 26.7905 25.125 26.5316 25.125Z" fill="white"/>
</g>
</svg>
