<svg width="30" height="30" viewBox="0 0 30 30" fill="none" xmlns="http://www.w3.org/2000/svg">
<g opacity="0.6">
<path d="M22.7812 24.2764H23.4844V24.9795H22.7812V24.2764Z" fill="white"/>
<path d="M26.2969 24.2765V17.2452H23.836V12.6748C23.836 12.0933 23.3629 11.6201 22.7813 11.6201H20.3203V7.3913L21.9174 6.98344V4.5L4.78969 8.8741V11.3575L6.38668 10.9497V15.8389H3.70313V24.2764H3V24.9795H22.0782V24.2764H17.5078V19.3545H23.836V17.9483H25.5938V24.2764H24.1875V24.9795H27V24.2764H26.2969V24.2765ZM12.9259 8.55404L5.49282 10.4523V9.4202L21.2143 5.4052V6.43735L13.6071 8.38009L13.7811 9.06132L19.6172 7.57088V11.6201H16.1016V17.2452H11.1797V15.8389H7.08985V10.7702L13.0999 9.23532L12.9259 8.55404ZM17.5078 18.6515H9.77345V17.9483H17.5078V18.6515ZM4.40625 16.5421H10.4766V17.2452H9.07032V19.3546H9.77345V24.2765H9.07032V20.0577H5.10933V24.2765H4.40625V16.5421ZM8.3672 22.1671V22.8702H5.81246V22.1671H8.3672ZM5.81246 21.464V20.7608H8.3672V21.464H5.81246ZM8.3672 23.5733V24.2765H5.81246V23.5733H8.3672ZM15.0469 24.2765H12.2343V21.1124H15.0469V24.2765ZM16.8047 24.2765H15.75V20.4093H11.5312V24.2765H10.4765V19.3546H16.8047V24.2765H16.8047ZM23.1329 18.6515H18.211V17.2452H16.8047V12.3233H22.7813C22.9751 12.3233 23.1329 12.481 23.1329 12.6749V18.6515Z" fill="white"/>
<path d="M17.8594 16.1904H22.0781V13.3779H17.8594V16.1904ZM18.5625 14.0811H21.375V15.4873H18.5625V14.0811Z" fill="white"/>
<path d="M15.047 11.6201H8.14453V14.7842H15.0471V11.6201H15.047ZM8.84766 12.3232H11.2442V14.0811H8.84766V12.3232ZM14.3439 14.081H11.9473V12.3232H14.3439V14.081Z" fill="white"/>
<path d="M24.5391 20.4092H18.5625V23.2217H24.5391V20.4092ZM19.2656 21.1123H21.1992V22.5186H19.2656V21.1123ZM23.8359 22.5186H21.9024V21.1123H23.8359V22.5186Z" fill="white"/>
<path d="M18.2109 8.66699H18.9141V9.37012H18.2109V8.66699Z" fill="white"/>
<path d="M18.2109 10.0732H18.9141V10.7764H18.2109V10.0732Z" fill="white"/>
</g>
</svg>
