<svg width="18" height="20" viewBox="0 0 18 20" fill="none" xmlns="http://www.w3.org/2000/svg">
<path d="M4.6384 8.2373H3.55895C3.4234 8.2373 3.29338 8.29682 3.19765 8.40268C3.10192 8.50854 3.04839 8.65209 3.04883 8.8016L3.05635 13.0745C3.05635 13.3852 3.28475 13.637 3.56647 13.637C3.84819 13.637 4.07659 13.3852 4.07659 13.0745V11.7772C4.28516 11.776 4.50798 11.775 4.6384 11.775C5.53472 11.775 6.26396 10.9815 6.26396 10.0061C6.26396 9.0308 5.53472 8.2373 4.6384 8.2373V8.2373ZM4.6384 10.65C4.50683 10.65 4.28319 10.651 4.0738 10.6522C4.07271 10.4127 4.07176 10.1548 4.07176 10.0061C4.07176 9.8789 4.07118 9.61262 4.07057 9.3623H4.63837C4.96648 9.3623 5.24368 9.65713 5.24368 10.0061C5.24368 10.3552 4.96651 10.65 4.6384 10.65V10.65Z" fill="#FFC50E"/>
<path d="M8.97696 8.2373H7.91149C7.77604 8.2373 7.64612 8.2967 7.55043 8.40242C7.45473 8.50813 7.4011 8.65149 7.40137 8.80085C7.40137 8.80089 7.40895 12.9351 7.40899 12.9501C7.4095 13.0993 7.4637 13.2422 7.55974 13.3473C7.65534 13.4519 7.7845 13.5106 7.91911 13.5106H7.92105C7.95325 13.5104 8.71323 13.5072 9.01706 13.5014C10.1697 13.4792 11.0063 12.3742 11.0063 10.8739C11.0063 9.2969 10.1908 8.2373 8.97696 8.2373V8.2373ZM8.99924 12.3766C8.86712 12.3791 8.63981 12.3812 8.42753 12.3827C8.4261 11.8941 8.42331 9.87005 8.42253 9.3623H8.97696C9.91331 9.3623 9.98605 10.5193 9.98605 10.874C9.98605 11.6124 9.68093 12.3634 8.99924 12.3766Z" fill="#FFC50E"/>
<path d="M14.3687 9.31885C14.6504 9.31885 14.8788 9.067 14.8788 8.75635C14.8788 8.4457 14.6504 8.19385 14.3687 8.19385H12.8089C12.5272 8.19385 12.2988 8.4457 12.2988 8.75635V12.9998C12.2988 13.3104 12.5272 13.5623 12.8089 13.5623C13.0907 13.5623 13.3191 13.3104 13.3191 12.9998V11.4004H14.2448C14.5265 11.4004 14.7549 11.1485 14.7549 10.8379C14.7549 10.5272 14.5265 10.2754 14.2448 10.2754H13.3191V9.31885H14.3687Z" fill="#FFC50E"/>
<path d="M15.8697 5.8374H15.4956V5.67694C15.4956 4.95386 15.2472 4.26668 14.796 3.7419L12.6772 1.27736C12.1977 0.71974 11.5231 0.399902 10.8262 0.399902H4.03492C3.19107 0.399902 2.50455 1.15691 2.50455 2.0874V5.8374H2.13046C1.28662 5.8374 0.600098 6.59441 0.600098 7.5249V14.2749C0.600098 15.2054 1.28662 15.9624 2.13046 15.9624H2.50455V17.9124C2.50455 18.8429 3.19107 19.5999 4.03492 19.5999H13.9653C14.8091 19.5999 15.4956 18.8429 15.4956 17.9124V15.9624H15.8697C16.7136 15.9624 17.4001 15.2054 17.4001 14.2749V7.5249C17.4001 6.59441 16.7136 5.8374 15.8697 5.8374ZM3.52479 2.0874C3.52479 1.77724 3.75363 1.5249 4.03492 1.5249H10.8262C11.2443 1.5249 11.6491 1.71679 11.9368 2.0514L14.0556 4.51594C14.3263 4.83079 14.4754 5.2431 14.4754 5.67694V5.8374H3.52479V2.0874ZM14.4754 17.9124C14.4754 18.2226 14.2466 18.4749 13.9653 18.4749H4.03492C3.75363 18.4749 3.52479 18.2226 3.52479 17.9124V15.9624H14.4754V17.9124ZM16.3799 14.2749C16.3799 14.5851 16.151 14.8374 15.8697 14.8374H2.13046C1.84918 14.8374 1.62034 14.5851 1.62034 14.2749V7.5249C1.62034 7.21474 1.84918 6.9624 2.13046 6.9624H15.8697C16.151 6.9624 16.3799 7.21474 16.3799 7.5249V14.2749Z" fill="#FFC50E"/>
</svg>
