<svg width="99" height="102" viewBox="0 0 99 102" fill="none" xmlns="http://www.w3.org/2000/svg">
<path d="M57.3536 51.3536C57.5488 51.1583 57.5488 50.8417 57.3536 50.6464L54.1716 47.4645C53.9763 47.2692 53.6597 47.2692 53.4645 47.4645C53.2692 47.6597 53.2692 47.9763 53.4645 48.1716L56.2929 51L53.4645 53.8284C53.2692 54.0237 53.2692 54.3403 53.4645 54.5355C53.6597 54.7308 53.9763 54.7308 54.1716 54.5355L57.3536 51.3536ZM31 51.5L57 51.5L57 50.5L31 50.5L31 51.5Z" fill="white"/>
<path fill-rule="evenodd" clip-rule="evenodd" d="M98 51C98 78.6142 75.6142 101 48 101C27.1119 101 9.21548 88.1914 1.73644 70H0.656738C8.1912 88.7566 26.549 102 48 102C76.1665 102 99 79.1665 99 51C99 22.8335 76.1665 0 48 0C26.9323 0 8.84816 12.7744 1.07089 31H2.16041C9.87598 13.341 27.4968 1 48 1C75.6142 1 98 23.3858 98 51Z" fill="white"/>
</svg>
